<?xml version="1.0" encoding="UTF-8"?>
<svg version="1.1" xmlns="http://www.w3.org/2000/svg" width="980" height="980">
<path d="M0 0 C5.4070606 0.00914673 10.81407187 -0.00496635 16.22112226 -0.01591969 C26.78176425 -0.03360796 37.34229185 -0.02990843 47.90293813 -0.01826912 C56.4938926 -0.00919665 65.08481525 -0.0080272 73.67577314 -0.01236439 C75.51721815 -0.01328379 75.51721815 -0.01328379 77.39586407 -0.01422176 C79.89059171 -0.01550079 82.38531934 -0.01679765 84.88004696 -0.01811212 C108.21527938 -0.02948953 131.55044871 -0.01644892 154.88567078 0.00508934 C174.86253533 0.02295772 194.8392586 0.01985282 214.81612349 0.0014143 C238.07387619 -0.02004273 261.33157374 -0.02839116 284.58933496 -0.01613665 C287.07434479 -0.01486259 289.55935461 -0.01360511 292.04436445 -0.01236439 C293.26670084 -0.01174729 294.48903722 -0.01113018 295.7484141 -0.01049438 C304.31853369 -0.00705595 312.888618 -0.01283713 321.45873213 -0.0222826 C331.91789236 -0.03355784 342.37693268 -0.03034725 352.83607936 -0.00915962 C358.16168718 0.00127692 363.48709583 0.00560053 368.8127017 -0.00775623 C424.791158 -0.13618088 473.37099825 11.78688745 514.8600688 51.52289867 C515.41984419 52.05012524 515.97961958 52.5773518 516.55635786 53.12055492 C547.53384252 82.38571631 568.78610433 124.74523254 571.8600688 167.52289867 C572.01180234 173.45739781 572.00387738 179.39043463 572.00051069 185.32656384 C572.00309684 187.15148948 572.00611069 188.97641455 572.00951409 190.80133885 C572.01755828 195.80469404 572.01937223 200.80803487 572.02011156 205.81139576 C572.02196666 211.21249246 572.02951637 216.61358178 572.03624678 222.01467419 C572.04981307 233.8208917 572.05585239 245.62710581 572.06025743 257.43332982 C572.06302318 264.81116543 572.06726119 272.18899973 572.07176161 279.56683445 C572.08395289 300.01024607 572.09425194 320.45365666 572.0976367 340.89707184 C572.09785627 342.2048439 572.09807583 343.51261597 572.09830205 344.86001749 C572.09852033 346.17085231 572.09873861 347.48168713 572.0989635 348.83224422 C572.09940696 351.488325 572.09985352 354.14440578 572.10030317 356.80048656 C572.1005246 358.1179838 572.10074603 359.43548104 572.10097417 360.79290243 C572.10491932 382.12484014 572.12236534 403.45673783 572.1456627 424.78866348 C572.16941104 446.71128692 572.18184016 468.6338932 572.18300462 490.5565297 C572.18391951 502.85650381 572.18962477 515.15643336 572.20782423 527.45639515 C572.22327238 537.93357221 572.22831802 548.41069091 572.22008613 558.8878772 C572.21619606 564.22703897 572.21702832 569.56608341 572.23114347 574.90523052 C572.24398173 579.80652276 572.24259889 584.70761071 572.23055276 589.60890307 C572.22861278 591.36873797 572.23159414 593.12858784 572.24039713 594.88840178 C572.31592261 611.02697936 570.61163714 627.01916915 566.1725688 642.58539867 C565.79020063 643.94725292 565.79020063 643.94725292 565.40010786 645.33661938 C559.08210204 667.00617161 548.64670122 687.67212868 534.8600688 705.52289867 C533.88940474 706.82807446 533.88940474 706.82807446 532.8991313 708.15961742 C522.04196775 722.17093719 508.62475514 735.67593248 493.8600688 745.52289867 C493.11064009 746.02482738 492.36121138 746.5267561 491.5890727 747.04389477 C475.80571399 757.48052855 459.65749151 765.6075874 441.6100688 771.33539867 C440.79167524 771.60142895 439.97328169 771.86745922 439.13008833 772.14155102 C436.06126789 773.05798697 432.97953798 773.79389441 429.8600688 774.52289867 C429.16939692 774.68661559 428.47872503 774.85033251 427.7671237 775.01901054 C407.27631997 779.65571513 386.59954775 779.09816347 365.7201376 779.04579735 C360.313077 779.03665062 354.90606573 779.0507637 349.49901533 779.06171703 C338.93837334 779.07940531 328.37784575 779.07570578 317.81719947 779.06406647 C309.226245 779.05499399 300.63532235 779.05382455 292.04436445 779.05816174 C290.81673445 779.05877467 289.58910444 779.0593876 288.32427353 779.06001911 C285.82954589 779.06129814 283.33481825 779.062595 280.84009063 779.06390947 C257.50485821 779.07528688 234.16968888 779.06224627 210.83446681 779.04070801 C190.85760227 779.02283963 170.880879 779.02594453 150.90401411 779.04438305 C127.64626141 779.06584008 104.38856385 779.07418851 81.13080263 779.06193399 C78.64579281 779.06065994 76.16078298 779.05940245 73.67577314 779.05816174 C72.45343676 779.05754463 71.23110038 779.05692753 69.9717235 779.05629173 C61.4016039 779.0528533 52.8315196 779.05863448 44.26140547 779.06807995 C33.80224524 779.07935518 23.34320492 779.0761446 12.88405824 779.05495697 C7.55845042 779.04452043 2.23304176 779.04019682 -3.09256411 779.05355358 C-52.39634325 779.16666532 -99.70099635 771.24369712 -138.1399312 737.52289867 C-139.27301714 736.55223461 -139.27301714 736.55223461 -140.4289937 735.56196117 C-143.05008487 733.26530474 -145.60129606 730.91054999 -148.1399312 728.52289867 C-148.98563677 727.72819164 -148.98563677 727.72819164 -149.8484273 726.91742992 C-181.22390269 697.18714183 -203.01325643 655.0340878 -206.1399312 611.52289867 C-206.29166474 605.58839954 -206.28373978 599.65536272 -206.2803731 593.71923351 C-206.28295924 591.89430787 -206.2859731 590.0693828 -206.2893765 588.2444585 C-206.29742068 583.2411033 -206.29923463 578.23776248 -206.29997396 573.23440158 C-206.30182907 567.83330489 -206.30937877 562.43221557 -206.31610918 557.03112316 C-206.32967547 545.22490565 -206.33571479 533.41869154 -206.34011984 521.61246753 C-206.34288559 514.23463192 -206.34712359 506.85679762 -206.35162401 499.4789629 C-206.36381529 479.03555127 -206.37411434 458.59214069 -206.3774991 438.14872551 C-206.37771867 436.84095344 -206.37793824 435.53318138 -206.37816446 434.18577986 C-206.37838273 432.87494504 -206.37860101 431.56411022 -206.3788259 430.21355313 C-206.37926936 427.55747235 -206.37971593 424.90139157 -206.38016558 422.24531078 C-206.38038701 420.92781355 -206.38060844 419.61031631 -206.38083658 418.25289492 C-206.38478173 396.92095721 -206.40222775 375.58905952 -206.4255251 354.25713386 C-206.44927344 332.33451043 -206.46170257 310.41190414 -206.46286702 288.48926765 C-206.46378191 276.18929353 -206.46948718 263.88936399 -206.48768663 251.5894022 C-206.50313478 241.11222514 -206.50818042 230.63510643 -206.49994853 220.15792014 C-206.49605846 214.81875838 -206.49689072 209.47971394 -206.51100588 204.14056683 C-206.52384414 199.23927458 -206.5224613 194.33818663 -206.51041517 189.43689428 C-206.50847518 187.67705938 -206.51145654 185.91720951 -206.52025953 184.15739556 C-206.59578502 168.01881799 -204.89149955 152.0266282 -200.4524312 136.46039867 C-200.19751909 135.55249584 -199.94260698 134.64459301 -199.67997026 133.70917797 C-193.36196444 112.03962574 -182.92656362 91.37366866 -169.1399312 73.52289867 C-168.49282183 72.65278149 -167.84571245 71.7826643 -167.1789937 70.88617992 C-138.12153763 33.38713089 -94.61456475 8.41792999 -47.82160234 1.3643446 C-32.01167534 -0.63035045 -15.90370933 -0.03988693 0 0 Z " fill="#2BCC59" transform="translate(307.1399312019348,100.47710132598877)"/>
<path d="M0 0 C2.6537971 0.81562209 5.32228176 1.57229685 7.99316406 2.33007812 C52.87886717 15.13887488 90.45425977 37.45980462 124.14160156 69.65820312 C124.88925781 70.36460937 125.63691406 71.07101562 126.40722656 71.79882812 C130.93271927 76.18178563 134.92310306 80.90354061 138.86035156 85.81835938 C140.3375279 87.65724156 141.83639696 89.47899135 143.36035156 91.27929688 C160.28078962 111.32763282 175.60646086 136.42087069 183.15722656 161.65429688 C184.01917295 164.28460152 185.00444476 166.77934648 186.06347656 169.33398438 C188.19059228 174.59844901 189.73784355 179.91162362 191.14160156 185.40820312 C191.52288208 186.88788574 191.52288208 186.88788574 191.91186523 188.39746094 C193.66234376 195.35955374 195.15968788 202.34754283 196.45410156 209.40820312 C196.61330078 210.27541992 196.7725 211.14263672 196.93652344 212.03613281 C199.10639121 224.48658556 199.34796811 236.80579853 199.32910156 249.40820312 C199.32783264 250.27635651 199.32656372 251.14450989 199.32525635 252.03897095 C199.22566451 287.7977914 194.36484576 324.31868118 178.14160156 356.65820312 C177.32584535 358.40999392 176.51512191 360.16413259 175.70800781 361.91992188 C158.86279093 398.3502587 134.14416879 432.03724995 102.14160156 456.65820312 C100.70880859 457.81642578 100.70880859 457.81642578 99.24707031 458.99804688 C76.73277771 476.92452136 51.10593928 489.88415817 24.14160156 499.65820312 C23.45195313 499.91682129 22.76230469 500.17543945 22.05175781 500.44189453 C10.39783515 504.81211553 -1.69087767 507.18755127 -13.85839844 509.65820312 C-14.71361084 509.83931641 -15.56882324 510.02042969 -16.44995117 510.20703125 C-65.52660521 520.44779141 -125.05003539 513.90967994 -169.34667969 490.27929688 C-179.31994004 485.05468655 -185.65835817 482.22122394 -196.85839844 485.65820312 C-198.20463102 485.97597039 -199.553842 486.28129687 -200.90527344 486.57617188 C-211.63349574 488.92682667 -222.24691129 491.78122494 -232.81152344 494.77539062 C-243.40564322 497.77067789 -254.05610474 500.48687598 -264.74169922 503.13745117 C-271.94063618 504.92422361 -279.12093027 506.75367686 -286.28027344 508.69335938 C-289.05874227 509.44257531 -291.83942379 510.1784768 -294.62402344 510.90429688 C-296.30632725 511.3430524 -297.98861887 511.78185465 -299.67089844 512.22070312 C-300.48316895 512.43251221 -301.29543945 512.64432129 -302.13232422 512.86254883 C-307.11510143 514.17151405 -312.05218181 515.56940964 -316.94824219 517.17773438 C-318.85839844 517.65820312 -318.85839844 517.65820312 -322.85839844 517.65820312 C-322.24261892 512.75007816 -321.28138765 508.13544491 -319.96777344 503.35351562 C-319.6880368 502.33014603 -319.6880368 502.33014603 -319.40264893 501.28610229 C-319.00789532 499.84513469 -318.61111289 498.4047215 -318.21240234 496.96484375 C-317.61990407 494.82476105 -317.03347972 492.68309384 -316.44824219 490.54101562 C-314.50623312 483.46031336 -312.49658465 476.40483064 -310.39746094 469.36914062 C-307.78464258 460.58253772 -305.47074188 451.72459821 -303.17892456 442.84973145 C-299.81750595 429.84180395 -296.42641161 416.84401304 -292.79589844 403.90820312 C-292.52148926 402.92916016 -292.24708008 401.95011719 -291.96435547 400.94140625 C-290.95998641 397.39506808 -289.95297585 393.9141552 -288.67480469 390.45507812 C-287.16766822 385.29187378 -287.2612193 381.39016829 -289.72949219 376.62695312 C-290.5751198 375.13176109 -291.43123401 373.6424675 -292.29589844 372.15820312 C-298.26052787 361.39261817 -302.63552139 350.19794633 -306.85839844 338.65820312 C-307.25067627 337.6150293 -307.25067627 337.6150293 -307.65087891 336.55078125 C-311.66631859 325.83922667 -314.04733664 314.81758569 -316.25878906 303.6171875 C-316.81671875 300.86388627 -317.43318618 298.13048046 -318.06152344 295.39257812 C-323.92519018 267.93584557 -323.0270343 236.16951218 -317.85839844 208.65820312 C-317.69742676 207.74554688 -317.53645508 206.83289063 -317.37060547 205.89257812 C-313.31565035 183.33129083 -306.01199277 161.21201897 -295.85839844 140.65820312 C-295.48102539 139.8910498 -295.10365234 139.12389648 -294.71484375 138.33349609 C-283.81679095 116.41689605 -270.04690564 96.97568121 -253.85839844 78.65820312 C-253.37016602 78.10535645 -252.88193359 77.55250977 -252.37890625 76.98291016 C-247.47050306 71.45475909 -242.52652714 66.08950872 -236.84277344 61.33789062 C-235.46609303 60.17259028 -234.12391564 58.96577087 -232.81152344 57.72851562 C-214.47810688 40.46981659 -192.51349491 27.39222319 -169.85839844 16.65820312 C-168.98054687 16.22378906 -168.10269531 15.789375 -167.19824219 15.34179688 C-148.35486302 6.29339135 -128.2534845 0.88458368 -107.85839844 -3.34179688 C-106.93671875 -3.53676758 -106.01503906 -3.73173828 -105.06542969 -3.93261719 C-72.85686436 -10.38172885 -31.43761614 -9.87131108 0 0 Z " fill="#2BCC59" transform="translate(551.8583984375,234.341796875)"/>
<path d="M0 0 C2.6537971 0.81562209 5.32228176 1.57229685 7.99316406 2.33007812 C52.87886717 15.13887488 90.45425977 37.45980462 124.14160156 69.65820312 C124.88925781 70.36460937 125.63691406 71.07101562 126.40722656 71.79882812 C130.93271927 76.18178563 134.92310306 80.90354061 138.86035156 85.81835938 C140.3375279 87.65724156 141.83639696 89.47899135 143.36035156 91.27929688 C160.28078962 111.32763282 175.60646086 136.42087069 183.15722656 161.65429688 C184.01917295 164.28460152 185.00444476 166.77934648 186.06347656 169.33398438 C188.19059228 174.59844901 189.73784355 179.91162362 191.14160156 185.40820312 C191.52288208 186.88788574 191.52288208 186.88788574 191.91186523 188.39746094 C193.66234376 195.35955374 195.15968788 202.34754283 196.45410156 209.40820312 C196.61330078 210.27541992 196.7725 211.14263672 196.93652344 212.03613281 C199.10639121 224.48658556 199.34796811 236.80579853 199.32910156 249.40820312 C199.32783264 250.27635651 199.32656372 251.14450989 199.32525635 252.03897095 C199.22566451 287.7977914 194.36484576 324.31868118 178.14160156 356.65820312 C177.32584535 358.40999392 176.51512191 360.16413259 175.70800781 361.91992188 C158.86279093 398.3502587 134.14416879 432.03724995 102.14160156 456.65820312 C100.70880859 457.81642578 100.70880859 457.81642578 99.24707031 458.99804688 C76.73277771 476.92452136 51.10593928 489.88415817 24.14160156 499.65820312 C23.45195313 499.91682129 22.76230469 500.17543945 22.05175781 500.44189453 C10.39783515 504.81211553 -1.69087767 507.18755127 -13.85839844 509.65820312 C-14.71361084 509.83931641 -15.56882324 510.02042969 -16.44995117 510.20703125 C-65.52660521 520.44779141 -125.05003539 513.90967994 -169.34667969 490.27929688 C-179.31994004 485.05468655 -185.65835817 482.22122394 -196.85839844 485.65820312 C-198.20463102 485.97597039 -199.553842 486.28129687 -200.90527344 486.57617188 C-211.63349574 488.92682667 -222.24691129 491.78122494 -232.81152344 494.77539062 C-243.40564322 497.77067789 -254.05610474 500.48687598 -264.74169922 503.13745117 C-271.94063618 504.92422361 -279.12093027 506.75367686 -286.28027344 508.69335938 C-289.05874227 509.44257531 -291.83942379 510.1784768 -294.62402344 510.90429688 C-296.30632725 511.3430524 -297.98861887 511.78185465 -299.67089844 512.22070312 C-300.48316895 512.43251221 -301.29543945 512.64432129 -302.13232422 512.86254883 C-307.11510143 514.17151405 -312.05218181 515.56940964 -316.94824219 517.17773438 C-318.85839844 517.65820312 -318.85839844 517.65820312 -322.85839844 517.65820312 C-322.24261892 512.75007816 -321.28138765 508.13544491 -319.96777344 503.35351562 C-319.6880368 502.33014603 -319.6880368 502.33014603 -319.40264893 501.28610229 C-319.00789532 499.84513469 -318.61111289 498.4047215 -318.21240234 496.96484375 C-317.61990407 494.82476105 -317.03347972 492.68309384 -316.44824219 490.54101562 C-314.50623312 483.46031336 -312.49658465 476.40483064 -310.39746094 469.36914062 C-307.78464258 460.58253772 -305.47074188 451.72459821 -303.17892456 442.84973145 C-299.81750595 429.84180395 -296.42641161 416.84401304 -292.79589844 403.90820312 C-292.52148926 402.92916016 -292.24708008 401.95011719 -291.96435547 400.94140625 C-290.95998641 397.39506808 -289.95297585 393.9141552 -288.67480469 390.45507812 C-287.16766822 385.29187378 -287.2612193 381.39016829 -289.72949219 376.62695312 C-290.5751198 375.13176109 -291.43123401 373.6424675 -292.29589844 372.15820312 C-298.26052787 361.39261817 -302.63552139 350.19794633 -306.85839844 338.65820312 C-307.25067627 337.6150293 -307.25067627 337.6150293 -307.65087891 336.55078125 C-311.66631859 325.83922667 -314.04733664 314.81758569 -316.25878906 303.6171875 C-316.81671875 300.86388627 -317.43318618 298.13048046 -318.06152344 295.39257812 C-323.92519018 267.93584557 -323.0270343 236.16951218 -317.85839844 208.65820312 C-317.69742676 207.74554688 -317.53645508 206.83289063 -317.37060547 205.89257812 C-313.31565035 183.33129083 -306.01199277 161.21201897 -295.85839844 140.65820312 C-295.48102539 139.8910498 -295.10365234 139.12389648 -294.71484375 138.33349609 C-283.81679095 116.41689605 -270.04690564 96.97568121 -253.85839844 78.65820312 C-253.37016602 78.10535645 -252.88193359 77.55250977 -252.37890625 76.98291016 C-247.47050306 71.45475909 -242.52652714 66.08950872 -236.84277344 61.33789062 C-235.46609303 60.17259028 -234.12391564 58.96577087 -232.81152344 57.72851562 C-214.47810688 40.46981659 -192.51349491 27.39222319 -169.85839844 16.65820312 C-168.98054687 16.22378906 -168.10269531 15.789375 -167.19824219 15.34179688 C-148.35486302 6.29339135 -128.2534845 0.88458368 -107.85839844 -3.34179688 C-106.93671875 -3.53676758 -106.01503906 -3.73173828 -105.06542969 -3.93261719 C-72.85686436 -10.38172885 -31.43761614 -9.87131108 0 0 Z M-112.85839844 42.65820312 C-113.79619141 42.9040918 -114.73398437 43.14998047 -115.70019531 43.40332031 C-125.72318996 46.0786835 -135.43230048 49.30339065 -144.85839844 53.65820312 C-145.59606445 53.98771973 -146.33373047 54.31723633 -147.09375 54.65673828 C-171.10734561 65.40213985 -191.92369406 79.4494299 -210.85839844 97.65820312 C-211.66905762 98.43599121 -211.66905762 98.43599121 -212.49609375 99.22949219 C-234.67595291 120.63698248 -251.12707951 146.221299 -262.85839844 174.65820312 C-263.1469873 175.35316895 -263.43557617 176.04813477 -263.73291016 176.76416016 C-269.19506035 190.21021366 -272.11219942 204.44821983 -274.85839844 218.65820312 C-275.05852539 219.67575684 -275.25865234 220.69331055 -275.46484375 221.74169922 C-277.11744144 231.0951673 -277.17302965 240.31837464 -277.10839844 249.78320312 C-277.10496429 250.60379211 -277.10153015 251.4243811 -277.09799194 252.26983643 C-277.03964015 264.15072429 -276.92689719 275.92740407 -274.85839844 287.65820312 C-274.70773926 288.52413086 -274.55708008 289.39005859 -274.40185547 290.28222656 C-269.98418803 314.66639283 -261.87175411 340.0741673 -248.48339844 361.09570312 C-247.92233398 361.97846924 -247.36126953 362.86123535 -246.78320312 363.77075195 C-245.70086828 365.43480233 -244.58853747 367.07988873 -243.44140625 368.69995117 C-240.49592992 373.16738436 -239.47658607 375.93294975 -240.38964844 381.29101562 C-240.83925534 383.09054059 -241.32595682 384.88142447 -241.85839844 386.65820312 C-242.21417969 387.88925781 -242.56996094 389.1203125 -242.93652344 390.38867188 C-243.32324219 391.52949219 -243.70996094 392.6703125 -244.10839844 393.84570312 C-246.67653707 401.68355395 -248.6608756 409.63305666 -250.61816406 417.64208984 C-252.16617849 423.95514869 -253.82089487 430.22147807 -255.60839844 436.47070312 C-257.41847745 442.81833877 -258.84777096 449.1286708 -259.85839844 455.65820312 C-251.91212826 454.19488461 -244.08762493 452.28465061 -236.25610352 450.30908203 C-234.192556 449.78866506 -232.12810838 449.27195583 -230.06347656 448.75585938 C-219.16832745 446.02496886 -208.30807754 443.1729728 -197.48339844 440.17382812 C-196.70609375 439.96113281 -195.92878906 439.7484375 -195.12792969 439.52929688 C-193.58184409 439.10618567 -192.03762305 438.67621537 -190.49511719 438.24023438 C-184.18370009 436.53243916 -178.86638386 435.38777076 -172.83496094 438.56445312 C-171.37708797 439.41658071 -169.92686448 440.28189222 -168.48339844 441.15820312 C-166.88157703 442.08544355 -165.27735151 443.00854171 -163.67089844 443.92773438 C-162.46240234 444.62116943 -162.46240234 444.62116943 -161.22949219 445.32861328 C-119.85394411 468.52993482 -70.22237327 474.74966232 -23.85839844 466.65820312 C-22.99714355 466.51366699 -22.13588867 466.36913086 -21.24853516 466.22021484 C-3.92209204 463.26092259 12.56234185 458.49281905 28.28808594 450.58349609 C30.2025971 449.62775356 32.13074694 448.70539396 34.06347656 447.78710938 C81.69761826 424.92272136 118.06602088 384.83542714 139.14160156 336.65820312 C139.74137817 335.32281494 139.74137817 335.32281494 140.35327148 333.96044922 C143.63670411 326.43039395 145.87057172 318.87616282 147.82910156 310.90820312 C148.12365234 309.74160156 148.41820312 308.575 148.72167969 307.37304688 C149.28821941 305.12471169 149.84966937 302.87508596 150.40527344 300.62402344 C150.84320152 298.86011416 151.28934154 297.09816006 151.75292969 295.34082031 C155.51193057 281.06639873 155.34581417 266.1309939 155.39160156 251.47070312 C155.39677795 250.71696411 155.40195435 249.9632251 155.4072876 249.18664551 C155.66468058 201.58575811 138.61714556 152.69081242 107.14160156 116.65820312 C106.24035795 115.56676418 105.34208533 114.47286738 104.44628906 113.37695312 C82.2472202 86.44755208 51.23022023 63.34680128 18.14160156 51.65820312 C17.3359375 51.34753906 16.53027344 51.036875 15.70019531 50.71679688 C4.14957969 46.32721866 -7.718917 42.98859074 -19.79589844 40.40820312 C-20.92995117 40.16360352 -20.92995117 40.16360352 -22.08691406 39.9140625 C-31.05609073 38.07322711 -40.02624245 37.4951317 -49.16699219 37.38476562 C-50.12345642 37.37223755 -51.07992065 37.35970947 -52.06536865 37.34680176 C-72.84437837 37.12718518 -92.6571047 37.20088095 -112.85839844 42.65820312 Z " fill="#FDFEFD" transform="translate(551.8583984375,234.341796875)"/>
<path d="M0 0 C1.17175781 -0.03287109 2.34351563 -0.06574219 3.55078125 -0.09960938 C13.191644 -0.15979637 13.191644 -0.15979637 16.78125 2.640625 C18.99895659 5.28708819 20.44439751 7.4455292 21.75 10.625 C22.11351562 11.48480469 22.47703125 12.34460938 22.8515625 13.23046875 C23.53974844 14.9635996 24.22719188 16.6970299 24.91040039 18.43212891 C27.93582634 26.06722737 31.14001032 33.62374727 34.35327148 41.18115234 C35.32209315 43.4600655 36.28908532 45.7397488 37.25585938 48.01953125 C37.87228955 49.4713993 38.48882219 50.92322384 39.10546875 52.375 C39.39399216 53.0551416 39.68251556 53.7352832 39.9797821 54.43603516 C41.48081256 57.96945005 41.48081256 57.96945005 43.125 61.4375 C44.23191893 68.71153871 40.86700851 74.35177066 37.125 80.4375 C34.04625893 84.40565516 30.58945109 87.95920722 27.05859375 91.5234375 C26.42050781 92.19632812 25.78242188 92.86921875 25.125 93.5625 C24.25875 94.43261719 24.25875 94.43261719 23.375 95.3203125 C21.47018579 98.54659157 21.6794921 100.74559542 22.125 104.4375 C23.22606384 107.1236597 24.70922817 109.46145949 26.3125 111.875 C26.75376221 112.55949219 27.19502441 113.24398437 27.6496582 113.94921875 C32.89771202 121.90065056 38.95548274 129.19297487 45.125 136.4375 C45.80691406 137.25089844 46.48882812 138.06429687 47.19140625 138.90234375 C48.79915194 140.7861293 50.44095606 142.62176542 52.125 144.4375 C52.77210938 145.13746094 53.41921875 145.83742188 54.0859375 146.55859375 C67.98958791 161.03947153 85.35483172 171.33527726 103.25 180.125 C104.11431641 180.55941406 104.97863281 180.99382812 105.86914062 181.44140625 C111.24544478 183.99797046 115.16620596 185.07710768 121.125 184.4375 C128.61374557 179.81678465 133.67283312 171.56992328 139.04296875 164.71484375 C139.53450439 164.08763428 140.02604004 163.4604248 140.5324707 162.81420898 C141.49337428 161.58538419 142.45165093 160.3544996 143.40698242 159.12133789 C149.28333138 151.57309298 149.28333138 151.57309298 152.11328125 151.1171875 C158.82823952 151.68146971 164.02721568 154.08547258 169.90625 157.22265625 C174.95411851 159.91542791 180.13813266 162.31226579 185.3125 164.75 C192.92558613 168.36706293 200.4723385 172.08610702 207.9375 176 C208.73760498 176.41741455 209.53770996 176.8348291 210.36206055 177.26489258 C211.46094604 177.84726685 211.46094604 177.84726685 212.58203125 178.44140625 C213.22116455 178.77986572 213.86029785 179.1183252 214.51879883 179.46704102 C216.125 180.4375 216.125 180.4375 218.125 182.4375 C219.73546771 197.7931224 216.26679363 212.08885178 206.640625 224.32421875 C198.6990586 233.0717362 187.11390622 238.5743193 176.125 242.4375 C175.04279175 242.82591064 175.04279175 242.82591064 173.9387207 243.22216797 C167.45728433 245.38286099 161.49868569 245.98087272 154.6875 245.9375 C153.64198975 245.93250488 152.59647949 245.92750977 151.51928711 245.92236328 C141.49632205 245.70107208 132.57794274 243.62848899 123.125 240.4375 C122.37605469 240.19161133 121.62710938 239.94572266 120.85546875 239.69238281 C111.78082335 236.6949287 102.85398695 233.33325313 94.125 229.4375 C93.08520996 228.97585449 93.08520996 228.97585449 92.02441406 228.50488281 C74.18345592 220.52080762 58.43349869 210.56335863 43.125 198.4375 C42.56167969 197.99277344 41.99835938 197.54804687 41.41796875 197.08984375 C33.04263111 190.39357141 25.41237062 182.92587819 17.8125 175.375 C16.8932373 174.46508301 15.97397461 173.55516602 15.02685547 172.61767578 C8.96833802 166.53069918 3.44502716 160.1757801 -1.875 153.4375 C-2.48093994 152.68025635 -3.08687988 151.9230127 -3.71118164 151.14282227 C-15.79046733 135.99866881 -26.80902587 120.57920931 -35.875 103.4375 C-36.61363281 102.09558594 -36.61363281 102.09558594 -37.3671875 100.7265625 C-46.80014155 82.15360328 -49.56355197 57.87636717 -43.25 37.94921875 C-37.57616776 23.45838016 -28.7017989 9.64923931 -15.0925293 1.35058594 C-10.39334313 -0.58434264 -5.00963832 0.02463757 0 0 Z " fill="#FDFEFD" transform="translate(404.875,367.5625)"/>
<path d="M0 0 C0.66 0.33 1.32 0.66 2 1 C-7.24 10.24 -16.48 19.48 -26 29 C-26 26 -26 26 -24.71484375 24.45703125 C-24.12832031 23.91433594 -23.54179687 23.37164062 -22.9375 22.8125 C-20.31708047 20.31310386 -17.89608727 17.76911853 -15.5625 15 C-12.55905358 11.50950821 -9.30811125 8.51909149 -5.80078125 5.54296875 C-3.7600079 3.79436686 -1.86078709 1.93831989 0 0 Z " fill="#E2F7E8" transform="translate(321,290)"/>
</svg>
